<svg xmlns="http://www.w3.org/2000/svg" xmlns:xlink="http://www.w3.org/1999/xlink" viewBox="0 0 60 60"><defs><style>.cls-1{fill:none;}.cls-2{fill:#ffca5f;}.cls-3{fill:#55e7ff;}.cls-4{fill:#1faedb;}.cls-5{clip-path:url(#clip-path);}.cls-6{fill:#1c96d3;}.cls-7{fill:#216ead;}.cls-8{fill:#31394a;}</style><clipPath id="clip-path"><circle class="cls-1" cx="33.89" cy="25.05" r="11.43"/></clipPath></defs><path class="cls-2" d="M53.8,17l-.23-2.69,2.23-1-1.53-3.07-2.11,1.22L50.1,9.72,51,7.39,47.73,6.3l-.64,2.4-2.68.24-1-2.34L40.28,8.15l1.27,2.19-1.72,2.07-2.42-.92-1.06,3.27,2.45.65L39,18.1l-2.34,1,1.57,3.06L40.44,21l2.07,1.73L41.61,25l3.27,1,.64-2.37,2.68-.24,1,2.25,3.06-1.57-1.21-2.08L52.78,20l2.27.86,1.07-3.26ZM46.49,19a2.88,2.88,0,1,1,2.61-3.12A2.87,2.87,0,0,1,46.49,19Z"/><circle class="cls-3" cx="46.39" cy="32.92" r="9.91"/><circle class="cls-4" cx="33.89" cy="25.05" r="11.43"/><g class="cls-5"><circle class="cls-6" cx="18.11" cy="21.78" r="15.36"/></g><path class="cls-7" d="M30.05,21.52A13.44,13.44,0,1,0,14.68,34.81l-.27-6.89,8,5.74A13.44,13.44,0,0,0,30.05,21.52Z"/><polygon class="cls-8" points="17.28 53.79 16.04 31.06 34.45 44.44 23.99 45.68 17.28 53.79"/></svg>